<svg width="24" height="24" viewBox="0 0 24 24" fill="none" xmlns="http://www.w3.org/2000/svg">
<path d="M13.2158 3C18.0926 3 22 7.05544 22 12C22 16.9446 18.0926 21 13.2158 21C12.6639 20.9996 12.2158 20.552 12.2158 20C12.2158 19.448 12.6639 19.0004 13.2158 19C16.9368 19 20 15.892 20 12C20 8.108 16.9368 5 13.2158 5C9.65259 5.00043 6.69414 7.85109 6.4502 11.5107L7.15137 10.7988C7.53851 10.4051 8.17258 10.4001 8.56641 10.7871C8.9599 11.1743 8.96518 11.8075 8.57812 12.2012L5.67969 15.1484L2.34473 12.2549C1.92804 11.8929 1.8835 11.2617 2.24512 10.8447C2.58447 10.4538 3.16082 10.3899 3.5752 10.6816L3.65527 10.7451L4.4502 11.4355C4.73407 6.75081 8.52632 3.00043 13.2158 3ZM13 8C13.5523 8 14 8.44772 14 9V12H16C16.5523 12 17 12.4477 17 13C17 13.5523 16.5523 14 16 14H13.25C12.5598 13.9998 12 13.4402 12 12.75V9C12 8.44786 12.4479 8.00024 13 8Z" fill="#8F8F8F"/>
</svg>
