<svg width="20" height="20" viewBox="0 0 20 20" fill="none" xmlns="http://www.w3.org/2000/svg">
<path fill-rule="evenodd" clip-rule="evenodd" d="M8.7513 1.6665C12.6633 1.6665 15.8346 4.83782 15.8346 8.74984C15.8346 10.4055 15.2646 11.9269 14.3128 13.133L18.0905 16.9106L18.1475 16.9741C18.4144 17.3014 18.3956 17.7839 18.0905 18.089C17.7854 18.3941 17.3029 18.4129 16.9756 18.146L16.9121 18.089L13.1344 14.3114C11.9284 15.2632 10.407 15.8332 8.7513 15.8332C4.83929 15.8332 1.66797 12.6619 1.66797 8.74984C1.66797 4.83782 4.83929 1.6665 8.7513 1.6665ZM8.7513 3.33317C5.75976 3.33317 3.33464 5.7583 3.33464 8.74984C3.33464 11.7414 5.75976 14.1665 8.7513 14.1665C11.7428 14.1665 14.168 11.7414 14.168 8.74984C14.168 5.7583 11.7428 3.33317 8.7513 3.33317Z" fill="#FAFAFA"/>
</svg>
