<svg width="18" height="18" viewBox="0 0 18 18" fill="none" xmlns="http://www.w3.org/2000/svg">
<path fill-rule="evenodd" clip-rule="evenodd" d="M7.74935 0.666656C11.6614 0.666656 14.8327 3.83797 14.8327 7.74999C14.8327 9.40564 14.2627 10.9271 13.3109 12.1331L17.0885 15.9108L17.1455 15.9743C17.4124 16.3016 17.3936 16.7841 17.0885 17.0892C16.7835 17.3942 16.3009 17.4131 15.9736 17.1461L15.9102 17.0892L12.1325 13.3115C10.9264 14.2633 9.405 14.8333 7.74935 14.8333C3.83733 14.8333 0.666016 11.662 0.666016 7.74999C0.666016 3.83797 3.83733 0.666656 7.74935 0.666656ZM7.74935 2.33332C4.75781 2.33332 2.33268 4.75845 2.33268 7.74999C2.33268 10.7415 4.75781 13.1667 7.74935 13.1667C10.7409 13.1667 13.166 10.7415 13.166 7.74999C13.166 4.75845 10.7409 2.33332 7.74935 2.33332Z" fill="#262626"/>
</svg>
