<svg width="40" height="40" viewBox="0 0 40 40" fill="none" xmlns="http://www.w3.org/2000/svg">
<path opacity="0.8" fill-rule="evenodd" clip-rule="evenodd" d="M0 20C0 8.95429 8.95433 0 20 0C25.3043 0 30.3914 2.10714 34.1422 5.85784C37.8929 9.60859 40 14.6957 40 20C40 31.0457 31.0457 40 20 40C8.95433 40 0 31.0457 0 20ZM16.3401 28.56L28.0001 21.28C28.4364 21.0006 28.7003 20.5182 28.7003 20C28.7003 19.4819 28.4364 18.9994 28.0001 18.72L16.3001 11.44C15.8393 11.1495 15.2571 11.1316 14.7794 11.3933C14.3016 11.655 14.0033 12.1552 14.0001 12.7V27.3C13.9937 27.858 14.2975 28.3735 14.7888 28.638C15.2801 28.9026 15.8777 28.8726 16.3401 28.56Z" fill="white"/>
</svg>
